<?xml version="1.0" encoding="UTF-8" standalone="no"?>
<svg
   width="200"
   height="200"
   version="1.1"
   viewBox="0 0 200 200"
   id="svg12"
   xml:space="preserve"
   xmlns="http://www.w3.org/2000/svg"
   xmlns:svg="http://www.w3.org/2000/svg"><defs
     id="defs16" /><g
     transform="translate(99.576269,140.77646)"
     id="g10"><path
       d="m -54.877,-140.55 c -3.2291,-0.12552 -3.8495,4.3002 -7.3201,4.1398 -4.6811,-0.21641 -4.554828,-2.45768 -8.866028,-1.98518 -1.514,0.16593 -5.2504,1.1439 -6.6199,0.97972 -6.1688,-0.73968 -6.665838,1.61263 -11.746038,4.36123 -4.8506,2.6241 -4.26629,5.56005 -2.760162,10.18937 0.30226,5.0157 -7.278,5.6629 -6.9014,10.525 0.26487,3.4199 1.015828,5.05208 3.518628,6.83558 0.24125,0.1719 -0.5308,0.25519 -0.78838,0.39455 -4.5567,2.4651 0.01398,8.1075 2.7062,14.318 0.88599,2.0437 -2.0639,3.8563 -1.8668,6.4018 0.08201,1.0588 1.073122,2.482712 0.60048,2.7392 -0.05616,0.03048 -0.11387,0.05666 -0.16952,0.08676 -4.0356,2.1832 -2.528347,7.926106 1.2786,12.496 0.779916,0.936218 -0.707276,1.383076 -0.851416,1.509406 -2.6427,2.3163 -3.477304,4.006104 -3.188504,7.734804 0.26487,3.4199 1.980697,4.854606 4.4137,6.7323 1.263645,0.975231 -3.241791,4.652098 -3.499371,4.791438 -4.313499,2.3336 9.225391,4.540582 4.734991,9.082182 l -0.002,0.0022 c -2.5615,2.5908 -4.6492,5.024 -4.3524,8.8559 0.2307,2.9786 2.072599,4.032194 3.4517,6.1126 0.83876,1.26529 -3.642885,5.619626 -3.860811,5.970837 -2.051184,3.305696 5.873111,2.726183 6.303511,9.869583 0.30225,5.0157 -7.278,5.6629 -6.9014,10.525 0.26487,3.4199 2.440168,4.3763694 4.4137,6.7323 0.898504,1.0726016 -1.407139,1.669159 -1.664719,1.808499 -4.3135,2.3336 7.390739,7.523521 2.900339,12.065121 l -0.002,0.0022 c -2.5615,2.5908 -4.6492,5.024 -4.3524,8.8559 0.23047,2.9757 3.5084,3.6021 3.4456,6.1084 -0.13986,5.579 -0.32551,7.2898 0.74869,12.227 1.2914,5.9352 6.6237,3.9677 14.102,3.4377 3.5945,-0.25472 3.9243,5.58 7.6795,6.0568 3.848,0.48854 4.4835,-4.0673 8.2984,-4.0757 4.6864,-0.01028 7.6011,4.4802 11.911,3.9972 3.1266,-0.35033 5.6419,-3.1499 8.1023,-2.4376 3.6972,1.0703 5.9415,-2.5037 11.289,-3.1523 3.3389,-0.40503 3.8653,5.103 7.4242,5.5548 3.848,0.48853 4.4835,-4.0675 8.2984,-4.0757 4.6866,-0.01008 7.6009,4.4802 11.911,3.9972 3.5083,-0.39309 6.0397,-2.863 8.8662,-2.9726 2.1216,-0.08229 3.2603,2.6592 5.68,2.9664 3.8481,0.48855 4.4854,-4.067 8.3004,-4.0757 4.6859,-0.01074 7.6014,4.4802 11.911,3.9972 1.5135,-0.16959 2.9111,-0.95408 4.2809,-0.79325 6.1701,0.72442 13.188,1.1225 18.261,-1.6381 1.9218,-1.0456 0.29188,-5.8304 2.2181,-4.9578 5.008,2.2686 8.4273,5.7501 13.286,5.2057 1.2569,-0.14084 2.4531,-0.8727 3.5926,-0.61972 6.7694,1.5028 10.007,0.86873 16.001,-2.3925 3.5859,-1.9511 7.4923,-4.6822 5.2363,-9.3265 -0.2739,-0.56385 0.51779,-1.2361 1.0621,-1.5762 2.0607,-1.2877 1.0481,-3.8299 1.2784,-6.2966 0.31139,-3.3356 1.8363,-5.5232 -0.38584,-8.3165 -0.99168,-1.2466 -3.9463,-1.6248 -3.1127,-2.4975 3.4319,-3.5929 6.8609,-6.0927 6.1906,-10.901 -0.30667,-2.2001 -3.345,-3.4223 -2.3508,-4.801 2.7073,-3.7544 -2.0934,-7.7364 -2.5142,-14.227 -0.27597,-4.2566 5.4607,-5.6924 4.8651,-9.9652 -0.37701,-2.7045 -4.0476,-3.4676 -3.2863,-5.5424 1.4222,-3.8758 -2.3417,-7.3132 -2.4407,-13.361 -0.06978,-4.2644 5.4586,-5.693 4.863,-9.9652 -0.0568,-0.40738 -0.50443,-0.90258 -0.22467,-1.1424 3.5042,-3.0034 -1.2987,-8.4957 -3.3332,-14.818 -0.84395,-2.6224 2.7104,-4.5516 2.2875,-7.5854 -0.39831,-2.8573 -4.4041,-3.5049 -3.6008,-5.751 1.4298,-3.9978 5.4347,-5.6847 4.8406,-9.9466 -0.05667,-0.40659 -0.50308,-0.89991 -0.22467,-1.1403 3.3066,-2.855 0.62862,-8.5972 -2.6838,-13.973 -0.30959,-0.50242 0.69261,-0.95967 0.9967,-1.4853 3.0122,-5.2064 1.6685,-9.0798 0.89254,-14.615 -1.0216,-7.2881 0.08251,-10.903 -4.354,-17.291 -2.5685,-3.6988 -4.5707,-5.1875 -10.245,-4.3061 -3.3239,0.5163 -4.4363,-2.9687 -7.9942,-3.4292 -3.8463,-0.49777 -3.9104,1.912 -7.7244,1.9108 -4.686,-10e-4 -7.592,-4.4966 -11.903,-4.0241 -3.368,0.36912 -6.018,3.629 -8.6007,2.7412 -3.9389,-1.3539 -6.0455,2.0366 -11.57,2.8032 -3.3325,0.4624 -3.8513,-5.1129 -7.4099,-5.5734 -3.8463,-0.49777 -4.4946,4.0541 -8.3086,4.053 -4.686,-0.001 -7.592,-4.4966 -11.903,-4.0241 -3.1283,0.34286 -5.6489,3.1364 -8.1084,2.419 -3.6947,-1.0777 -5.9458,2.4903 -11.295,3.1255 -3.3408,0.39672 -3.8513,-5.1129 -7.4099,-5.5734 -3.8463,-0.49777 -4.4946,4.0541 -8.3086,4.053 -4.686,-0.001 -7.592,-4.4966 -11.903,-4.0241 -3.5098,0.38468 -6.0451,2.8492 -8.8723,2.952 -2.1224,0.0772 -3.2522,-2.6678 -5.6718,-2.9809 -0.34268,-0.0443 -0.6727,-0.0744 -0.98854,-0.0868 z"
       fill="#284600"
       stroke-width="0.6768"
       style="paint-order:fill markers stroke"
       id="path2" /><g
       transform="translate(-5.6475,-2.9211)"
       id="g8"><rect
         x="-71.186996"
         y="-114.6"
         width="113.73"
         height="114.5"
         ry="11.526"
         fill="#c9c9b9"
         stroke-width="1.3679"
         style="fill:#e3e3cd;fill-opacity:1;paint-order:fill markers stroke"
         id="rect4" /></g></g><g
     id="g1415"
     transform="translate(69.537056,-206.90584)"><a
       id="a1403"
       transform="matrix(1,0,0,0.84372482,0,43.032737)"><rect
         style="fill:#4e6100;fill-opacity:1;stroke:none;stroke-width:0.4;stroke-opacity:1;paint-order:fill markers stroke"
         id="rect1350"
         width="5.2580333"
         height="35.053555"
         x="27.458618"
         y="240.31158" /><rect
         style="fill:#4e6100;fill-opacity:1;stroke:none;stroke-width:0.4;stroke-opacity:1;paint-order:fill markers stroke"
         id="rect1350-3"
         width="5.2580333"
         height="35.053555"
         x="38.266796"
         y="240.31158" /></a><g
       id="g1407"
       transform="matrix(0.82613211,0,0,1,6.4083056,2.9337254)"><rect
         style="fill:#4e6100;fill-opacity:1;stroke:none;stroke-width:0.4;stroke-opacity:1;paint-order:fill markers stroke"
         id="rect1350-0"
         width="5.2580333"
         height="35.053555"
         x="249.79677"
         y="-51.385914"
         transform="rotate(89.691186)" /><rect
         style="fill:#4e6100;fill-opacity:1;stroke:none;stroke-width:0.4;stroke-opacity:1;paint-order:fill markers stroke"
         id="rect1350-3-4"
         width="5.2580333"
         height="35.053555"
         x="260.60495"
         y="-51.385914"
         transform="rotate(89.691186)" /></g></g><g
     id="g1487"><path
       d="m 51.606119,55.423534 c 0.396797,-2.019451 1.438405,-3.316141 2.862644,-3.975117 1.154989,-0.538511 2.508363,-0.588112 3.91135,-0.219649 1.218742,0.318843 2.501265,0.970741 3.727105,1.906064 3.323222,2.529613 6.43388,7.298345 6.830678,13.257458 0.12045,1.835219 0.08503,3.790885 -0.08503,5.874103 -0.113424,1.37464 -0.290529,2.820144 -0.531444,4.322318 h 14.136094 l 0.06385,0.0074 c 2.29578,0.09203 4.520715,0.651889 6.398449,1.629735 1.622636,0.850295 2.990186,2.012355 3.939676,3.457859 0.97783,1.487999 1.50927,3.259433 1.43133,5.285971 -0.0566,1.502184 -0.46058,3.13191 -1.28253,4.867926 0.46766,1.95567 0.68732,4.05305 0.38263,5.895358 -0.25508,1.56595 -0.86446,2.95474 -1.95566,3.98927 0.0566,2.58631 -0.29051,4.75455 -0.98492,6.63228 -0.71567,1.92733 -1.785621,3.5287 -3.160262,4.94586 -0.120446,1.24 -0.318852,2.42333 -0.630627,3.52872 -0.389715,1.38881 -0.963663,2.66424 -1.764356,3.79089 v 0 c -2.409157,3.40115 -4.336491,3.32322 -7.390451,3.19567 -0.425146,-0.0143 -0.878642,-0.0354 -1.587219,-0.0354 H 48.261685 c -2.487096,0 -4.442765,-0.36136 -6.228383,-1.25417 -1.764352,-0.88573 -3.273623,-2.2462 -4.882093,-4.25855 l -0.410965,-1.17625 V 84.851061 l 1.402973,-0.375532 c 3.564138,-0.963673 6.370099,-4.010553 8.552515,-7.659721 2.239113,-3.755449 3.81215,-8.14863 4.889177,-11.698604 v -9.331943 z"
       id="path238"
       style="fill:#4e6100;fill-opacity:1;stroke:none;stroke-width:0.708576;stroke-opacity:1" /></g></svg>
